<?xml version="1.0" encoding="UTF-8"?>
<svg width="26px" height="18px" viewBox="0 0 26 18" version="1.1" xmlns="http://www.w3.org/2000/svg" xmlns:xlink="http://www.w3.org/1999/xlink">
    <!-- Generator: Sketch 55.1 (78136) - https://sketchapp.com -->
    <title>Icon</title>
    <desc>Created with Sketch.</desc>
    <g id="Page-1" stroke="none" stroke-width="1" fill="none" fill-rule="evenodd">
        <g id="Page" transform="translate(-1244.000000, -463.000000)" fill="#9B9B9B">
            <g id="Sign-Up-Form" transform="translate(830.000000, 267.000000)">
                <g id="Form" transform="translate(0.000000, 52.000000)">
                    <path d="M419.108699,157.891301 C415.617208,155.830115 414,153 414,153 C414,153 418,146 427,146 C428.304511,146 429.503975,146.147065 430.601439,146.398561 L429.751902,147.248098 C428.897148,147.090055 427.980093,147 427,147 C419,147 415.199951,153 415.199951,153 C415.199951,153 416.714728,155.391723 419.844927,157.155073 L419.108699,157.891301 L419.108699,157.891301 L419.108699,157.891301 L419.108699,157.891301 Z M423.398561,159.601439 C424.496025,159.852936 425.695489,160 427,160 C436,159.999999 440,153 440,153 C440,153 438.382792,150.169886 434.891301,148.108699 L434.155073,148.844927 C437.285272,150.608278 438.800049,153 438.800049,153 C438.800049,153 435,158.999999 427,159 C426.019907,159 425.102851,158.909945 424.248098,158.751902 L423.398561,159.601439 L423.398561,159.601439 L423.398561,159.601439 L423.398561,159.601439 Z M430.898653,152.101347 C430.964966,152.390211 431,152.691014 431,153 C431,155.209139 429.209139,157 427,157 C426.691014,157 426.390212,156.964966 426.101347,156.898653 L427,156 C427.767767,156 428.535534,155.707107 429.12132,155.12132 C429.707107,154.535534 430,153.767767 430,153 L430.898653,152.101347 L430.898653,152.101347 L430.898653,152.101347 L430.898653,152.101347 Z M427.898653,149.101347 C427.609788,149.035034 427.308986,149 427,149 C424.790861,149 423,150.790861 423,153 C423,153.308986 423.035034,153.609789 423.101347,153.898653 L424,153 C424,152.232233 424.292893,151.464466 424.87868,150.87868 C425.464466,150.292893 426.232233,150 427,150 L427.898653,149.101347 L427.898653,149.101347 L427.898653,149.101347 L427.898653,149.101347 Z M435,144 L418,161 L419,162 L436,145 L435,144 L435,144 L435,144 Z" id="Icon"></path>
                </g>
            </g>
        </g>
    </g>
</svg>